<?xml version="1.0" encoding="UTF-8" standalone="no"?>
<!-- Created with Inkscape (http://www.inkscape.org/) -->

<svg
   xmlns:dc="http://purl.org/dc/elements/1.1/"
   xmlns:cc="http://creativecommons.org/ns#"
   xmlns:rdf="http://www.w3.org/1999/02/22-rdf-syntax-ns#"
   xmlns:svg="http://www.w3.org/2000/svg"
   xmlns="http://www.w3.org/2000/svg"
   xmlns:sodipodi="http://sodipodi.sourceforge.net/DTD/sodipodi-0.dtd"
   xmlns:inkscape="http://www.inkscape.org/namespaces/inkscape"
   version="1.1"
   id="svg5579"
   xml:space="preserve"
   width="800"
   height="800"
   viewBox="0 0 800 800"
   sodipodi:docname="alligator-vector-clipart-pdv.svg"
   inkscape:version="0.92.4 (5da689c313, 2019-01-14)"><metadata
     id="metadata5585"><rdf:RDF><cc:Work
         rdf:about=""><dc:format>image/svg+xml</dc:format><dc:type
           rdf:resource="http://purl.org/dc/dcmitype/StillImage" /><dc:title></dc:title></cc:Work></rdf:RDF></metadata><defs
     id="defs5583"><clipPath
       clipPathUnits="userSpaceOnUse"
       id="clipPath5595"><path
         d="M 0,600 H 600 V 0 H 0 Z"
         id="path5593"
         inkscape:connector-curvature="0" /></clipPath></defs><sodipodi:namedview
     pagecolor="#ffffff"
     bordercolor="#666666"
     borderopacity="1"
     objecttolerance="10"
     gridtolerance="10"
     guidetolerance="10"
     inkscape:pageopacity="0"
     inkscape:pageshadow="2"
     inkscape:window-width="1920"
     inkscape:window-height="1018"
     id="namedview5581"
     showgrid="false"
     inkscape:zoom="1.06125"
     inkscape:cx="400"
     inkscape:cy="400"
     inkscape:window-x="-8"
     inkscape:window-y="-8"
     inkscape:window-maximized="1"
     inkscape:current-layer="g5587" /><g
     id="g5587"
     inkscape:groupmode="layer"
     inkscape:label="alligator-vector-clipart-pdv"
     transform="matrix(1.3333333,0,0,-1.3333333,0,800)"><g
       id="g5589"><g
         id="g5591"
         clip-path="url(#clipPath5595)"><path
           d="m 311.901,381.072 h 0.002 c 10e-4,10e-4 -0.003,-0.002 -0.003,-0.002 l -10e-4,0.002 z m -119.583,75.632 -0.023,0.067 -10e-4,0.003 c 0.005,-0.027 0.025,-0.047 0.024,-0.07 M 445.324,307.363 c -0.002,0.006 -0.013,0.01 -0.019,0.017 0.004,0.002 0.017,0.004 0.017,0.006 v -0.008 l 0.004,-0.015 z M 334.697,206.078 c 0.014,-0.043 -0.037,-0.21 -0.051,-0.143 l 0.028,0.338 0.019,0.051 0.094,0.25 0.168,0.508 0.584,1.094 c 0.481,0.728 0.957,1.476 1.563,2.18 2.32,2.859 5.107,5.43 7.863,7.831 1.58,1.354 3.16,2.653 4.736,3.92 3.363,2.029 6.692,4.204 8.379,5.737 0.975,0.889 2.272,0.882 2.775,1.413 0.256,0.281 0.454,0.495 0.584,0.642 0.075,0.083 2.442,2.434 4.145,4.125 8.672,6.16 16.117,11.122 21.551,14.733 0.627,0.412 1.219,0.802 1.791,1.18 -1.344,-2.262 6.697,-4.459 19.041,-6.291 l 1.297,4.773 3.586,-5.451 c 1.552,-0.202 3.152,-0.399 4.795,-0.589 l 1.73,5.572 4.127,-6.21 c 1.26,-0.128 2.533,-0.253 3.822,-0.374 l 2.16,6.113 4.508,-6.698 c 0.998,-0.083 2.002,-0.162 3.008,-0.238 l 2.594,6.466 4.763,-6.985 c 0.772,-0.049 1.545,-0.099 2.319,-0.146 l 3.027,6.663 4.908,-7.096 c 0.584,-0.026 1.168,-0.053 1.75,-0.08 l 3.452,6.705 4.931,-7.018 c 0.449,-0.013 0.893,-0.026 1.338,-0.037 l 3.842,6.586 4.812,-6.736 c 0.383,-0.003 0.766,-0.005 1.143,-0.008 l 4.154,6.274 4.5,-6.181 c 2.471,0.069 4.756,0.173 6.799,0.319 4.65,-0.758 7.064,-2.673 7.811,-5.216 -2.832,-1.508 -5.973,-3.086 -9.409,-4.686 l -4.281,3.397 -2.617,-6.456 c -0.457,-0.196 -0.914,-0.387 -1.379,-0.58 l -4.719,4.351 -3.181,-7.45 c -1.319,-0.491 -2.649,-0.982 -4.012,-1.467 l -4.666,4.525 -3.231,-7.188 c -0.742,-0.237 -1.466,-0.481 -2.218,-0.717 -0.192,-0.06 -0.393,-0.117 -0.586,-0.177 l -4.908,5.002 -3.545,-7.478 c -0.182,-0.051 -0.36,-0.104 -0.541,-0.153 l -4.629,4.949 -3.237,-6.484 -4.566,5.114 -3.418,-6.504 -4.383,5.133 -4.316,-8.038 c -0.219,-0.043 -0.44,-0.085 -0.658,-0.127 l -6.366,7.312 -4.422,-8.894 -5.607,7.127 -5.019,-9.144 c -0.608,-0.085 -1.213,-0.172 -1.823,-0.252 l -3.902,5.202 -3.879,-5.979 -4.121,5.721 -4.621,-6.745 c -0.832,-0.074 -1.662,-0.147 -2.494,-0.215 l -4.227,6.108 -5.18,-6.717 c -0.732,-0.037 -1.466,-0.064 -2.201,-0.092 l -3.959,5.958 -4.707,-6.164 c -0.148,0 -0.295,-0.005 -0.441,-0.005 -0.524,0.002 -1.041,0.01 -1.563,0.015 l -3.517,5.5 -4.268,-5.286 c -1.045,0.052 -2.084,0.116 -3.115,0.194 -0.041,0.002 -0.078,0.007 -0.117,0.01 l -2.727,4.429 -3.215,-3.764 c -1.957,0.301 -3.847,0.699 -5.595,1.268 -0.875,0.278 -1.664,0.648 -2.268,1.027 -0.119,0.099 -0.285,0.192 -0.375,0.282 -0.051,0.08 -0.197,0.17 -0.203,0.219 -0.008,0.023 -0.088,0.144 -0.014,-0.057 m 110.639,101.235 c -0.094,-0.003 -0.15,-0.004 -0.215,-0.007 l 0.203,0.057 c 0,-0.002 0.002,-0.002 0.004,-0.003 z m 37.26,169.858 c -2.008,-0.688 -4.016,-1.375 -4.016,-1.375 l -0.158,0.517 c 0,0 2.047,0.558 4.096,1.116 2.009,0.667 4.021,1.333 4.021,1.333 0,0 -1.973,-0.795 -3.943,-1.591 m -21.053,-4.819 c 0,0 -1.086,-0.088 -2.715,-0.219 -1.629,-0.166 -3.808,-0.209 -5.99,-0.308 -1.092,-0.007 -2.186,-0.014 -3.211,-0.021 -1.033,-0.019 -1.973,0.016 -2.783,0.034 -1.623,0.04 -2.703,0.066 -2.703,0.066 l 0.127,2.517 c 0,0 1.078,-0.083 2.693,-0.209 0.809,-0.062 1.758,-0.146 2.752,-0.179 1,-0.046 2.066,-0.096 3.135,-0.145 2.138,-0.016 4.289,-0.088 5.894,-0.009 1.612,0.044 2.682,0.073 2.682,0.073 z m -14.404,-10.981 -0.03,0.715 8.495,-0.004 z m -7.459,-11.783 -0.145,0.923 8.457,0.841 z m -9.76,11.032 c 0,0 -4.311,-0.048 -8.623,-0.096 l -8.594,0.056 0.119,3.169 c 0,0 4.287,-0.295 8.574,-0.591 4.276,-0.251 8.553,-0.503 8.553,-0.503 z m -7.383,-14.048 c 0,0 -4.303,-0.645 -8.621,-1.24 -4.301,-0.541 -8.603,-1.082 -8.603,-1.082 l -0.344,3.881 c 0,0 4.33,0.221 8.66,0.442 4.307,0.295 8.625,0.54 8.625,0.54 z m -30.012,32.063 c 0,0 -4.25,0.653 -8.498,1.307 -4.283,0.595 -8.3,1.149 -8.3,1.149 l 1.046,4.981 0.045,0.282 c 0,0 1.332,-0.234 3.541,-0.619 1.409,-0.245 2.926,-0.512 4.582,-0.8 4.276,-0.809 8.483,-1.607 8.483,-1.607 z m 2.967,-17.675 c 0,0 -4.295,0.122 -8.588,0.243 -4.293,0.14 -8.586,0.281 -8.586,0.281 l 0.27,5.012 c 0,0 4.283,-0.335 8.566,-0.669 4.282,-0.356 8.563,-0.709 8.563,-0.709 z m -7.525,-18.47 -17.289,-1.321 -0.291,6.04 17.338,0.315 z m -29.541,40.437 c 0,0 -4.242,0.274 -8.485,0.547 l -8.642,0.311 0.224,4.651 0.086,1.795 c 0,0 4.315,-0.262 8.633,-0.524 0.852,-0.082 1.701,-0.164 2.522,-0.242 3.392,-0.328 6.234,-0.601 6.234,-0.601 z m 2.769,-21.087 c 0,0 -4.254,0.006 -8.509,0.011 l -8.59,-0.092 0.033,6.468 c 0,0 4.295,-0.094 8.59,-0.188 4.332,-0.202 8.664,-0.403 8.664,-0.403 z m -7.873,-21.644 -17.312,-0.921 -0.254,7.535 17.338,0.195 z m -29.004,43.269 c 0,0 -1.063,-0.07 -2.655,-0.177 -1.594,-0.088 -3.713,-0.296 -5.828,-0.475 -1.048,-0.112 -2.098,-0.223 -3.078,-0.328 -0.973,-0.095 -1.921,-0.224 -2.724,-0.324 -1.608,-0.205 -2.68,-0.341 -2.68,-0.341 l -0.639,5.56 -0.193,1.701 c 0,0 1.075,0.11 2.688,0.273 0.809,0.083 1.737,0.186 2.784,0.263 1.036,0.085 2.142,0.176 3.245,0.266 1.251,0.075 2.489,0.158 3.636,0.225 0.866,0.051 1.688,0.096 2.397,0.117 1.645,0.069 2.744,0.115 2.744,0.115 z m 2.838,-22.521 c 0,0 -4.18,-0.392 -8.36,-0.786 -4.26,-0.556 -8.519,-1.113 -8.519,-1.113 l -0.865,7.541 c 0,0 4.276,0.417 8.552,0.835 l 8.767,0.54 z m -8.309,-22.765 c 0,0 -1.063,-0.095 -2.659,-0.239 -1.601,-0.128 -3.71,-0.369 -5.824,-0.599 -1.052,-0.119 -2.066,-0.269 -3.037,-0.392 -0.956,-0.117 -1.874,-0.252 -2.688,-0.391 -1.604,-0.258 -2.673,-0.431 -2.673,-0.431 l -1.245,8.363 c 0,0 1.073,0.145 2.682,0.364 0.793,0.115 1.754,0.233 2.819,0.339 1.048,0.107 2.18,0.244 3.285,0.34 2.201,0.185 4.402,0.377 6.045,0.467 1.645,0.107 2.741,0.177 2.741,0.177 z m -36.374,38.723 c -4.164,-1.159 -8.328,-2.319 -8.328,-2.319 l -1.813,6.707 -0.264,0.973 c 0,0 4.182,1.097 8.366,2.194 1.883,0.418 3.766,0.837 5.292,1.175 1.985,0.44 3.371,0.748 3.371,0.748 l 1.569,-7.536 c 0,0 -4.097,-0.97 -8.193,-1.942 m 8.796,-21.618 c -1.533,-0.359 -3.547,-0.946 -5.569,-1.498 -0.988,-0.3 -1.979,-0.601 -2.907,-0.882 -0.467,-0.146 -0.901,-0.264 -1.346,-0.417 -0.439,-0.146 -0.852,-0.284 -1.235,-0.41 -1.527,-0.508 -2.545,-0.846 -2.545,-0.846 l -2.537,7.89 c 0,0 1.026,0.317 2.565,0.795 0.385,0.119 0.802,0.249 1.242,0.385 0.431,0.14 0.938,0.271 1.433,0.415 1.006,0.284 2.077,0.585 3.149,0.888 2.132,0.539 4.255,1.11 5.866,1.456 1.605,0.367 2.677,0.612 2.677,0.612 l 1.752,-7.752 c 0,0 -1.018,-0.254 -2.545,-0.636 m -7.883,-24.067 c -0.738,-0.259 -1.606,-0.541 -2.508,-0.912 -0.912,-0.355 -1.879,-0.733 -2.85,-1.112 -0.936,-0.406 -1.871,-0.812 -2.748,-1.194 -0.44,-0.195 -0.854,-0.36 -1.27,-0.56 -0.42,-0.203 -0.815,-0.394 -1.18,-0.572 -1.464,-0.707 -2.439,-1.178 -2.439,-1.178 l -3.811,7.942 c 0,0 0.979,0.465 2.445,1.164 0.725,0.35 1.58,0.758 2.595,1.181 0.988,0.423 2.044,0.873 3.097,1.324 1.052,0.404 2.103,0.808 3.086,1.185 0.982,0.394 1.918,0.693 2.717,0.968 1.596,0.542 2.663,0.904 2.663,0.904 l 2.664,-8.287 c 0,0 -0.983,-0.341 -2.461,-0.853 m -33.086,34.764 -7.914,-3.486 -2.906,6.74 -0.449,1.039 7.966,3.367 c 2.719,1.046 5.43,2.09 6.973,2.683 0.801,0.308 1.291,0.498 1.291,0.498 l 2.87,-7.697 c 0,0 -3.915,-1.572 -7.831,-3.144 m 9.521,-22.174 c -1.439,-0.653 -3.316,-1.598 -5.206,-2.521 -1.857,-0.966 -3.672,-1.874 -5.104,-2.676 -1.416,-0.771 -2.359,-1.284 -2.359,-1.284 l -4.161,7.688 c 0,0 0.947,0.509 2.364,1.271 1.383,0.765 3.412,1.773 5.373,2.777 1.973,0.951 3.937,1.927 5.439,2.594 1.495,0.678 2.492,1.13 2.492,1.13 l 3.539,-7.852 c 0,0 -0.95,-0.451 -2.377,-1.127 m -5.546,-28.354 c -0.616,-0.474 -1.347,-1.014 -2.083,-1.651 -0.747,-0.624 -1.543,-1.289 -2.339,-1.953 -0.753,-0.681 -1.508,-1.363 -2.215,-2.002 -0.355,-0.328 -0.691,-0.608 -1.024,-0.938 -0.332,-0.326 -0.646,-0.634 -0.936,-0.919 -1.159,-1.139 -1.933,-1.897 -1.933,-1.897 l -6.296,6.454 c 0,0 0.779,0.754 1.945,1.885 0.292,0.284 0.607,0.59 0.941,0.914 0.332,0.324 0.746,0.678 1.138,1.036 0.805,0.719 1.662,1.486 2.52,2.253 0.872,0.718 1.743,1.437 2.559,2.11 0.807,0.686 1.603,1.272 2.279,1.785 1.349,1.022 2.251,1.703 2.251,1.703 l 5.252,-7.2 c 0,0 -0.824,-0.631 -2.059,-1.58 m -23.453,11.542 c -1.294,-0.888 -2.949,-2.163 -4.628,-3.409 -0.808,-0.638 -1.616,-1.276 -2.375,-1.873 -0.751,-0.58 -1.474,-1.183 -2.092,-1.704 -1.238,-1.033 -2.061,-1.721 -2.061,-1.721 l -5.707,6.878 c 0,0 0.829,0.683 2.07,1.708 0.617,0.511 1.339,1.11 2.183,1.758 0.827,0.644 1.708,1.331 2.589,2.019 1.776,1.307 3.535,2.64 4.901,3.568 1.354,0.948 2.256,1.58 2.256,1.58 l 4.998,-7.292 c 0,0 -0.854,-0.604 -2.134,-1.512 m 0.779,-35.683 c -0.447,-0.641 -0.977,-1.383 -1.493,-2.214 -0.53,-0.822 -1.094,-1.699 -1.657,-2.577 -0.524,-0.881 -1.048,-1.761 -1.539,-2.588 -0.245,-0.421 -0.484,-0.794 -0.706,-1.208 -0.224,-0.408 -0.435,-0.794 -0.63,-1.151 -0.779,-1.425 -1.3,-2.376 -1.3,-2.376 l -7.803,4.237 c 0,0 0.513,0.954 1.285,2.384 0.193,0.357 0.402,0.745 0.622,1.155 0.217,0.407 0.5,0.867 0.764,1.325 0.541,0.924 1.117,1.909 1.694,2.894 0.602,0.949 1.204,1.899 1.768,2.788 0.552,0.898 1.12,1.703 1.596,2.399 0.956,1.389 1.594,2.317 1.594,2.317 l 7.291,-5.246 c 0,0 -0.595,-0.855 -1.486,-2.139 m 25.636,-178.87 -0.04,-1.99 c 0,0 -1.072,-0.015 -2.686,-0.037 -0.403,-0.006 -0.839,-0.013 -1.3,-0.019 -0.458,-0.017 -0.961,0.019 -1.471,0.03 -1.025,0.032 -2.12,0.066 -3.214,0.1 -1.087,0.083 -2.173,0.166 -3.192,0.243 -1.021,0.059 -1.968,0.189 -2.78,0.297 -1.624,0.211 -2.707,0.352 -2.707,0.352 l 0.557,3.061 c 0,0 1.039,-0.194 2.596,-0.487 1.551,-0.327 3.652,-0.582 5.749,-0.898 1.049,-0.105 2.096,-0.21 3.081,-0.308 0.494,-0.044 0.962,-0.113 1.426,-0.128 0.461,-0.023 0.897,-0.048 1.299,-0.07 1.611,-0.086 2.682,-0.146 2.682,-0.146 m 0.042,-20.622 c -2.114,-0.196 -4.233,-0.391 -4.233,-0.391 l -0.027,0.596 c 0,0 2.118,0.046 4.236,0.093 2.123,0.093 4.244,0.187 4.244,0.187 0,0 -2.11,-0.242 -4.22,-0.485 m 8.629,-31.167 c 0,0 -4.3,-0.724 -8.599,-1.451 -1.065,-0.133 -2.113,-0.232 -3.102,-0.344 -0.99,-0.108 -1.912,-0.206 -2.703,-0.294 -1.582,-0.169 -2.638,-0.284 -2.638,-0.284 l -0.646,6.663 c 0,0 1.057,0.091 2.643,0.227 0.793,0.069 1.718,0.149 2.707,0.234 0.99,0.092 2.055,0.169 3.099,0.28 4.092,0.519 8.185,1.038 8.185,1.038 z m -36.956,99.639 c -0.452,0.334 -0.864,0.699 -1.281,1.034 -0.836,0.667 -1.568,1.343 -2.211,1.908 -0.645,0.562 -1.133,1.081 -1.498,1.42 -0.357,0.35 -0.562,0.547 -0.562,0.547 l 4.552,4.327 c 0,0 0.177,-0.185 0.486,-0.512 0.312,-0.325 0.738,-0.804 1.283,-1.349 0.548,-0.544 1.17,-1.196 1.885,-1.841 0.357,-0.322 0.708,-0.68 1.099,-1.002 0.382,-0.331 0.773,-0.669 1.161,-1.004 0.803,-0.643 1.594,-1.308 2.379,-1.871 0.777,-0.59 1.504,-1.087 2.127,-1.51 0.593,-0.427 1.232,-0.792 1.613,-1.043 0.401,-0.251 0.632,-0.395 0.632,-0.395 l -2.656,-4.528 c 0,0 -0.238,0.131 -0.655,0.357 -0.426,0.244 -0.987,0.514 -1.748,0.983 -0.753,0.443 -1.625,0.966 -2.505,1.551 -0.904,0.57 -1.82,1.242 -2.749,1.901 -0.451,0.344 -0.906,0.689 -1.352,1.027 m 6.732,-69.359 c 0,0 -1.082,0.046 -2.702,0.115 -0.811,0.038 -1.752,0.063 -2.775,0.148 -1.023,0.076 -2.115,0.157 -3.205,0.236 -2.168,0.227 -4.343,0.413 -5.961,0.661 -1.624,0.218 -2.708,0.364 -2.708,0.364 l 0.489,2.705 c 0,0 1.052,-0.206 2.627,-0.513 1.572,-0.334 3.696,-0.639 5.81,-0.987 1.061,-0.139 2.121,-0.279 3.116,-0.411 0.989,-0.144 1.938,-0.224 2.743,-0.309 1.614,-0.164 2.691,-0.272 2.691,-0.272 z m -4.239,-32.944 c 0,0 -4.379,0.351 -8.757,0.699 -1.065,0.127 -2.105,0.292 -3.093,0.426 -0.984,0.14 -1.903,0.271 -2.691,0.382 -1.572,0.239 -2.621,0.397 -2.621,0.397 l 0.859,6.366 c 0,0 1.052,-0.123 2.632,-0.31 0.79,-0.102 1.71,-0.22 2.696,-0.344 0.986,-0.121 2.044,-0.274 3.085,-0.382 4.086,-0.263 8.168,-0.527 8.168,-0.527 z m -38.213,76.785 c 0,0 -0.742,0.776 -1.854,1.941 -0.277,0.292 -0.58,0.608 -0.898,0.94 -0.317,0.336 -0.652,0.747 -0.999,1.142 -0.689,0.805 -1.425,1.664 -2.161,2.522 -0.68,0.879 -1.36,1.76 -2,2.583 -0.65,0.817 -1.185,1.63 -1.661,2.315 -0.947,1.376 -1.577,2.291 -1.577,2.291 l 5.395,3.408 c 0,0 0.559,-0.872 1.399,-2.178 0.422,-0.65 0.895,-1.425 1.478,-2.202 0.56,-0.793 1.159,-1.637 1.757,-2.482 0.626,-0.801 1.252,-1.602 1.84,-2.354 0.302,-0.375 0.561,-0.738 0.864,-1.087 0.304,-0.346 0.591,-0.674 0.856,-0.979 1.06,-1.212 1.767,-2.022 1.767,-2.022 z m 7.995,-38.42 c 0,0 -1.029,0.337 -2.571,0.839 -0.772,0.257 -1.665,0.528 -2.644,0.909 -0.976,0.365 -2.015,0.751 -3.056,1.137 -1.018,0.424 -2.036,0.848 -2.99,1.245 -0.96,0.385 -1.834,0.791 -2.582,1.146 -1.501,0.7 -2.502,1.168 -2.502,1.168 l 2.048,3.93 c 0,0 0.936,-0.495 2.342,-1.232 0.7,-0.376 1.521,-0.807 2.424,-1.222 0.898,-0.424 1.856,-0.878 2.814,-1.332 0.969,-0.414 1.935,-0.829 2.843,-1.216 0.89,-0.4 1.794,-0.725 2.548,-1.017 1.516,-0.576 2.526,-0.961 2.526,-0.961 z m -3.855,-32.15 c 0,0 -4.089,1.548 -8.178,3.096 -0.504,0.198 -0.972,0.434 -1.452,0.645 -0.474,0.216 -0.943,0.431 -1.395,0.636 -0.905,0.414 -1.751,0.797 -2.473,1.128 -1.444,0.676 -2.406,1.126 -2.406,1.126 l 1.701,4.106 c 0,0 0.998,-0.36 2.496,-0.902 0.745,-0.277 1.615,-0.603 2.547,-0.952 0.466,-0.173 0.947,-0.354 1.437,-0.536 0.488,-0.176 0.986,-0.385 1.482,-0.54 3.944,-1.18 7.89,-2.361 7.89,-2.361 z m -32.445,-0.133 c -0.611,-0.394 -1.235,-0.753 -1.235,-0.753 l -0.423,1.227 c 0,0 0.71,0.104 1.434,0.177 0.719,0.085 1.447,0.139 1.447,0.139 0,0 -0.606,-0.411 -1.223,-0.79 m -7.312,-4.309 c -1.18,-0.668 -2.377,-1.293 -2.377,-1.293 l -1.577,4.061 c 0,0 1.304,0.35 2.628,0.653 1.313,0.323 2.645,0.6 2.645,0.6 l 1.039,-2.679 c 0,-0.001 -1.17,-0.695 -2.358,-1.342 m -9.377,23.494 c -0.611,-0.396 -1.235,-0.754 -1.235,-0.754 l -0.422,1.226 c 0,0 0.711,0.105 1.434,0.175 0.719,0.085 1.447,0.14 1.447,0.14 0,0 -0.606,-0.409 -1.224,-0.787 m 0.884,-28.049 c -1.201,-0.606 -2.402,-1.213 -2.402,-1.213 l -2.377,5.579 c 0,0 1.268,0.446 2.538,0.889 1.279,0.422 2.558,0.844 2.558,0.844 l 2.063,-4.841 c 0,0 -1.19,-0.629 -2.38,-1.258 m -12.149,26.507 c 0,0 1.305,0.347 2.627,0.65 1.314,0.324 2.645,0.602 2.645,0.602 l 1.04,-2.68 c 0,0 -1.169,-0.694 -2.358,-1.343 -1.178,-0.666 -2.377,-1.293 -2.377,-1.293 z m 3.679,-30.852 c -1.186,-0.628 -2.395,-1.211 -2.395,-1.211 l -2.945,6.062 c 0,0 1.207,0.587 2.436,1.13 1.224,0.55 2.448,1.099 2.448,1.099 l 2.839,-5.84 c 0,0 -1.192,-0.621 -2.383,-1.24 m -10.619,22.313 -2.378,5.581 c 0,0 1.269,0.444 2.539,0.888 1.278,0.423 2.558,0.844 2.558,0.844 l 2.062,-4.841 c 0,0 -1.189,-0.628 -2.38,-1.258 -1.201,-0.609 -2.401,-1.214 -2.401,-1.214 m 3.999,-25.836 c -0.195,-0.112 -0.424,-0.245 -0.669,-0.388 -0.235,-0.127 -0.538,-0.339 -0.819,-0.503 -0.287,-0.175 -0.573,-0.35 -0.841,-0.513 0.055,0.033 -0.051,-0.042 -0.07,-0.048 -0.04,-0.024 -0.081,-0.04 -0.121,-0.055 -0.369,-0.341 -0.616,-0.57 -0.616,-0.57 l -4.574,4.674 c 0,0 0.233,0.241 0.582,0.604 0.162,0.139 0.336,0.286 0.519,0.445 0.21,0.167 0.341,0.286 0.65,0.503 0.259,0.181 0.534,0.372 0.809,0.563 0.287,0.195 0.533,0.372 0.844,0.556 0.295,0.18 0.571,0.347 0.807,0.494 0.474,0.287 0.789,0.477 0.789,0.477 l 3.362,-5.861 c 0,0 -0.261,-0.151 -0.652,-0.378 m -4.934,-5.135 c -0.176,-0.371 -0.338,-0.945 -0.525,-1.489 -0.071,-0.273 -0.151,-0.545 -0.231,-0.801 -0.082,-0.233 -0.143,-0.551 -0.199,-0.791 -0.114,-0.492 -0.19,-0.819 -0.19,-0.819 l -5.29,0.746 c 0,0 0.017,0.335 0.045,0.841 0.015,0.255 0.02,0.524 0.068,0.905 0.043,0.362 0.091,0.75 0.139,1.136 0.14,0.756 0.253,1.5 0.422,2.075 0.151,0.572 0.252,0.953 0.252,0.953 l 5.774,-2.113 c 0,0 -0.107,-0.257 -0.265,-0.643 m -23.122,16.028 c 0,0 0.017,0.336 0.044,0.841 0.016,0.257 0.02,0.525 0.069,0.906 0.043,0.363 0.09,0.75 0.139,1.135 0.14,0.755 0.252,1.499 0.422,2.075 0.15,0.574 0.251,0.955 0.251,0.955 l 5.774,-2.116 c 0,0 -0.106,-0.257 -0.264,-0.64 -0.177,-0.372 -0.338,-0.946 -0.525,-1.491 -0.071,-0.273 -0.152,-0.544 -0.231,-0.799 -0.081,-0.236 -0.143,-0.552 -0.199,-0.791 -0.115,-0.494 -0.189,-0.821 -0.189,-0.821 z m 4.287,-7.239 c -0.109,-1.343 -0.255,-2.698 -0.255,-2.698 l -2.932,-0.168 c 0,0 -0.305,1.323 -0.555,2.662 -0.222,1.393 -0.386,2.814 -0.386,2.814 l 4.446,-0.056 c 0,0 -0.131,-1.264 -0.318,-2.554 m -0.7,-8.39 c -0.048,-0.725 -0.127,-1.455 -0.127,-1.455 0,0 -0.3,0.668 -0.569,1.34 -0.284,0.67 -0.528,1.347 -0.528,1.347 l 1.312,0.215 c 0,0 -0.023,-0.72 -0.088,-1.447 m 16.776,-17.736 c 0,0 -0.024,-0.721 -0.088,-1.447 -0.049,-0.725 -0.127,-1.454 -0.127,-1.454 0,0 -0.301,0.667 -0.569,1.34 -0.284,0.67 -0.529,1.345 -0.529,1.345 z m -2.575,4.078 c 0,0 -0.306,1.324 -0.555,2.66 -0.223,1.394 -0.387,2.815 -0.387,2.815 l 4.446,-0.057 c 0,0 -0.129,-1.262 -0.317,-2.551 -0.11,-1.344 -0.255,-2.7 -0.255,-2.7 z m -13.547,40.778 c 0.161,0.137 0.335,0.286 0.519,0.444 0.21,0.168 0.339,0.284 0.649,0.506 0.26,0.18 0.535,0.37 0.81,0.56 0.286,0.196 0.532,0.371 0.844,0.556 0.295,0.182 0.57,0.35 0.806,0.493 0.474,0.287 0.79,0.48 0.79,0.48 l 3.36,-5.861 c 0,0 -0.26,-0.152 -0.651,-0.38 -0.196,-0.113 -0.424,-0.246 -0.669,-0.386 -0.235,-0.128 -0.538,-0.34 -0.819,-0.503 -0.287,-0.176 -0.573,-0.353 -0.841,-0.515 0.057,0.035 -0.05,-0.04 -0.069,-0.048 -0.04,-0.022 -0.081,-0.04 -0.122,-0.054 -0.368,-0.341 -0.616,-0.57 -0.616,-0.57 l -4.574,4.673 c 0,0 0.234,0.241 0.583,0.605 m 10.844,6.301 c 1.223,0.55 2.447,1.101 2.447,1.101 l 2.839,-5.842 c 0,0 -1.191,-0.62 -2.382,-1.237 -1.186,-0.629 -2.396,-1.214 -2.396,-1.214 l -2.945,6.065 c 0,0 1.207,0.586 2.437,1.127 m -15.846,182.589 c -1.246,0.439 -2.492,0.879 -2.492,0.879 l 2.384,5.538 c 0,0 1.176,-0.603 2.352,-1.207 0.803,-0.469 1.599,-0.932 2.054,-1.198 0.238,-0.138 0.388,-0.226 0.388,-0.226 l -2.175,-4.26 -0.204,-0.399 c 0,0 -1.154,0.437 -2.307,0.873 m -6.245,2.001 c 0,0 -1.147,0.278 -2.28,0.575 -0.645,0.127 -1.29,0.255 -1.773,0.351 -0.484,0.103 -0.807,0.171 -0.807,0.171 l 1.456,6.574 c 0,0 1.28,-0.288 2.568,-0.63 1.401,-0.43 2.79,-0.88 2.79,-0.88 z M 86.333,388.81 c 0,0 -0.294,0.013 -0.698,-0.006 -0.093,-0.004 -0.232,-0.002 -0.297,-0.011 -0.093,-0.009 -0.144,-0.001 -0.282,-0.017 -0.133,-0.021 -0.268,-0.041 -0.408,-0.062 l -0.305,-0.079 c -0.205,-0.028 -0.424,-0.159 -0.629,-0.216 -0.178,-0.089 -0.33,-0.164 -0.481,-0.228 -0.461,-0.287 -0.769,-0.479 -0.769,-0.479 l -2.98,4.455 c 0,0 0.294,0.212 0.734,0.529 0.324,0.195 0.725,0.432 1.149,0.653 0.429,0.178 0.848,0.408 1.35,0.546 0.246,0.072 0.492,0.144 0.734,0.216 0.212,0.044 0.419,0.087 0.62,0.129 0.24,0.034 0.471,0.067 0.688,0.098 0.243,0.033 0.397,0.036 0.576,0.051 0.682,0.042 1.11,0.028 1.109,0.028 z m 4.182,-26.694 c 0,0 -0.277,0.007 -0.693,0.017 -0.211,0.012 -0.443,0 -0.694,-0.008 -0.126,-0.003 -0.255,-0.006 -0.389,-0.01 l -0.323,-0.028 -0.326,-0.016 c -0.12,-0.008 -0.307,-0.043 -0.45,-0.062 -0.154,-0.022 -0.281,-0.162 -0.421,-0.183 l -0.071,-0.117 c 0.006,-0.005 0.013,-0.012 0.023,-0.01 -0.013,-0.003 -0.017,-0.003 -0.034,-0.006 l 0.011,0.016 c -0.033,0.029 -0.044,0.116 -0.154,0.078 -0.095,-0.03 -0.189,0.001 -0.258,-0.02 -0.136,-0.043 -0.221,-0.039 -0.221,-0.039 l -2.134,6.261 c 0,0 0.077,0.029 0.212,0.079 0.068,0.025 0.15,0.055 0.245,0.089 0.058,0.027 0.313,0.1 0.495,0.152 0.101,0.028 0.208,0.057 0.316,0.087 l 0.083,0.022 0.042,0.011 0.163,0.034 0.103,0.021 c 0.137,0.028 0.284,0.058 0.436,0.089 0.16,0.031 0.286,0.063 0.488,0.096 0.216,0.027 0.435,0.056 0.655,0.085 0.219,0.024 0.437,0.047 0.653,0.07 0.192,0.009 0.381,0.019 0.564,0.028 0.367,0.019 0.71,0.038 0.995,0.031 0.572,-0.005 0.954,-0.008 0.954,-0.008 z m -11.404,22.381 c -0.331,-0.367 -0.727,-0.922 -1.153,-1.444 -0.199,-0.268 -0.396,-0.536 -0.583,-0.787 -0.185,-0.24 -0.366,-0.517 -0.518,-0.739 -0.308,-0.449 -0.513,-0.748 -0.513,-0.748 l -3.708,2.197 c 0,0 0.163,0.324 0.408,0.809 0.126,0.244 0.258,0.518 0.445,0.845 0.179,0.32 0.369,0.661 0.559,1.004 0.772,1.333 1.702,2.612 1.702,2.612 l 3.897,-3.118 c 0,0 -0.214,-0.253 -0.536,-0.631 m 4.098,-24.715 c -0.351,-0.246 -0.804,-0.655 -1.266,-1.024 -0.223,-0.191 -0.444,-0.384 -0.653,-0.563 -0.202,-0.165 -0.427,-0.386 -0.603,-0.549 -0.364,-0.337 -0.604,-0.563 -0.604,-0.563 l -4.208,4.075 c 0,0 0.217,0.248 0.543,0.622 0.169,0.189 0.336,0.395 0.585,0.653 0.235,0.251 0.486,0.518 0.737,0.785 0.517,0.514 1.021,1.015 1.449,1.379 0.417,0.366 0.695,0.61 0.695,0.61 l 3.904,-4.987 c 0,0 -0.233,-0.174 -0.579,-0.438 m -7.678,-7.386 c -0.88,-0.987 -1.761,-1.975 -1.761,-1.975 l -3.593,2.701 c 0,0 0.703,1.12 1.407,2.242 0.762,1.142 1.553,2.274 1.553,2.274 l 4.124,-3.388 c 0,0 -0.85,-0.931 -1.73,-1.854 m -6.174,-7.111 c -0.855,-1.021 -1.739,-2.021 -1.739,-2.021 l -1.963,1.291 c 0,0 0.568,1.209 1.165,2.398 0.586,1.197 1.198,2.377 1.198,2.377 l 3.046,-2.005 c 0,0 -0.842,-1.028 -1.707,-2.04 m -1.629,21.594 c 0.098,0.711 0.216,1.416 0.216,1.416 l 0.951,-0.308 c 0,0 -0.326,-0.638 -0.669,-1.269 -0.336,-0.635 -0.694,-1.262 -0.694,-1.262 0,0 0.085,0.715 0.196,1.423 m 2.056,8.838 c 0.467,1.409 0.968,2.821 0.968,2.821 l 3.2,-1.53 c 0,0 -0.696,-1.218 -1.426,-2.439 -0.715,-1.266 -1.432,-2.532 -1.432,-2.532 l -2.107,0.879 c 0,0 0.373,1.406 0.797,2.801 m 21.88,17.999 c 0,0 0.349,-0.093 0.875,-0.232 0.525,-0.142 1.217,-0.319 1.925,-0.517 l 2.925,-0.974 -1.715,-5.182 c 0,0 -1.301,0.37 -2.603,0.74 -1.399,0.351 -2.8,0.703 -2.8,0.703 z m 10.146,-3.456 c 0,0 1.323,-0.59 2.646,-1.181 1.317,-0.607 2.633,-1.214 2.633,-1.214 l -1.594,-4.168 c 0,0 -1.385,0.432 -2.766,0.864 -1.377,0.45 -2.756,0.898 -2.756,0.898 z m 9.445,-4.433 c 0,0 1.309,-0.628 2.603,-1.298 1.285,-0.612 2.559,-1.277 2.559,-1.277 l -0.756,-2.28 c 0,0 -1.456,0.288 -2.899,0.643 -1.412,0.353 -2.812,0.746 -2.812,0.746 z m 9.341,-4.392 c 0,0 0.171,-0.054 0.426,-0.136 0.238,-0.074 0.569,-0.184 0.908,-0.256 0.339,-0.08 0.682,-0.12 0.945,-0.129 0.265,-0.017 0.446,0.01 0.446,0.01 0,0 -0.154,-0.097 -0.415,-0.193 -0.258,-0.105 -0.623,-0.189 -0.99,-0.242 -0.371,-0.059 -0.743,-0.084 -1.031,-0.093 -0.268,-0.002 -0.447,-0.003 -0.447,-0.003 z M 169.73,212.03 c 0,0 -0.857,0.659 -2.141,1.651 -0.321,0.246 -0.67,0.514 -1.038,0.798 -0.367,0.269 -0.758,0.624 -1.161,0.957 -0.806,0.68 -1.665,1.408 -2.526,2.134 -0.817,0.751 -1.634,1.506 -2.401,2.212 -0.776,0.697 -1.46,1.39 -2.045,1.983 -1.175,1.187 -1.958,1.977 -1.958,1.977 l 4.248,3.888 c 0,0 0.71,-0.774 1.775,-1.932 0.53,-0.584 1.149,-1.262 1.858,-1.946 0.7,-0.693 1.444,-1.435 2.188,-2.176 0.766,-0.698 1.533,-1.396 2.249,-2.052 0.368,-0.328 0.687,-0.648 1.058,-0.943 0.357,-0.298 0.695,-0.578 1.005,-0.838 1.248,-1.037 2.079,-1.728 2.079,-1.728 z m -9.082,-25.991 c 1.855,-1.027 3.716,-2.023 5.081,-2.809 1.371,-0.776 2.283,-1.292 2.283,-1.292 l -1.366,-2.243 c 0,0 -0.865,0.64 -2.162,1.603 -1.298,0.952 -2.991,2.273 -4.69,3.562 -0.433,0.313 -0.818,0.679 -1.223,1.012 -0.398,0.343 -0.788,0.679 -1.165,1.004 -0.752,0.658 -1.451,1.27 -2.053,1.797 -1.196,1.06 -1.994,1.766 -1.994,1.766 0,0 0.916,-0.545 2.287,-1.364 0.685,-0.413 1.481,-0.895 2.335,-1.412 0.424,-0.261 0.863,-0.531 1.309,-0.807 0.447,-0.269 0.885,-0.577 1.358,-0.817 m -17.498,69.974 c 0,0 0.417,-0.959 1.043,-2.4 0.31,-0.721 0.669,-1.564 1.109,-2.441 0.428,-0.883 0.885,-1.827 1.34,-2.77 0.485,-0.908 0.97,-1.816 1.425,-2.668 0.237,-0.428 0.426,-0.832 0.676,-1.236 0.236,-0.4 0.459,-0.778 0.665,-1.127 0.825,-1.396 1.374,-2.327 1.374,-2.327 l -5.42,-3.301 c 0,0 -0.574,0.914 -1.437,2.287 -0.215,0.343 -0.448,0.716 -0.695,1.111 -0.251,0.378 -0.5,0.853 -0.765,1.304 -0.525,0.923 -1.086,1.906 -1.647,2.888 -0.513,0.99 -1.026,1.98 -1.505,2.909 -0.495,0.922 -0.902,1.808 -1.253,2.568 -0.707,1.514 -1.18,2.526 -1.18,2.526 z m -14.68,26.094 c -0.187,1.032 -0.296,2.004 -0.395,2.838 -0.199,1.664 -0.333,2.774 -0.333,2.774 l 7.677,0.715 c 0,0 0.108,-1.038 0.27,-2.596 0.132,-1.559 0.458,-3.624 0.733,-5.693 0.179,-1.012 0.355,-2.023 0.522,-2.972 0.091,-0.48 0.147,-0.92 0.257,-1.384 0.098,-0.454 0.192,-0.884 0.278,-1.278 0.343,-1.584 0.573,-2.642 0.573,-2.642 l -7.1,-1.641 c 0,0 -0.259,1.049 -0.646,2.624 -0.096,0.393 -0.201,0.819 -0.312,1.27 -0.117,0.439 -0.208,0.969 -0.319,1.482 -0.213,1.042 -0.441,2.154 -0.668,3.264 -0.182,1.104 -0.364,2.206 -0.537,3.239 m -8.033,70.681 c 0,0 0.404,-0.595 0.78,-1.218 0.375,-0.644 0.703,-1.293 0.703,-1.293 0,0 -0.615,0.405 -1.19,0.808 -0.622,0.379 -1.216,0.785 -1.216,0.785 z m 10.21,-6.794 c 0.216,1.028 0.446,2.126 0.676,3.223 0.259,1.079 0.516,2.157 0.76,3.168 0.232,1.013 0.498,1.948 0.711,2.752 0.434,1.607 0.721,2.678 0.721,2.678 l 8.366,-2.397 -0.695,-2.537 c -0.207,-0.762 -0.465,-1.645 -0.689,-2.606 -0.238,-0.958 -0.492,-1.981 -0.744,-3.002 -0.23,-1.015 -0.459,-2.031 -0.673,-2.982 -0.222,-0.937 -0.407,-1.862 -0.562,-2.663 -0.317,-1.591 -0.527,-2.651 -0.527,-2.651 l -8.366,1.595 c 0,0 0.194,1.063 0.484,2.657 0.142,0.793 0.312,1.724 0.538,2.765 m -4.342,-37.906 c 0,0.804 0.314,1.759 0.341,2.807 0.024,1.04 0.191,2.155 0.228,3.259 0.089,2.203 0.24,4.407 0.363,6.058 0.103,1.652 0.211,2.754 0.211,2.754 l 8.243,-0.675 c 0,0 -0.073,-1.055 -0.196,-2.637 -0.143,-1.582 -0.241,-3.697 -0.361,-5.813 -0.051,-1.056 -0.073,-2.102 -0.113,-3.089 -0.041,-0.976 -0.061,-1.911 -0.068,-2.729 -0.027,-1.622 -0.355,-2.703 -0.355,-2.703 l -8.293,0.065 z m -10.407,45.833 c 0,0 -1.158,0.558 -2.263,1.139 -1.213,0.551 -2.405,1.136 -2.405,1.136 l 0.25,0.39 2.086,3.252 c 0,-0.001 1.029,-0.837 2.038,-1.71 1.042,-0.952 2.025,-1.934 2.025,-1.934 l -1.247,-1.636 z m 26.972,28.835 c 0.489,0.999 0.98,1.997 1.439,2.933 0.447,0.942 0.912,1.797 1.299,2.536 0.777,1.476 1.296,2.46 1.296,2.46 l 3.386,-1.856 4.399,-2.415 c 0,0 -0.493,-0.925 -1.232,-2.315 -0.37,-0.694 -0.812,-1.499 -1.24,-2.386 -0.438,-0.881 -0.904,-1.821 -1.372,-2.761 -0.435,-0.939 -0.869,-1.878 -1.278,-2.757 -0.411,-0.862 -0.784,-1.732 -1.102,-2.483 -0.639,-1.491 -1.064,-2.484 -1.064,-2.484 l -8.089,3.443 c 0,0 0.42,0.995 1.051,2.488 0.31,0.744 0.679,1.614 1.131,2.587 0.06,0.131 0.123,0.27 0.184,0.403 0.386,0.844 0.787,1.722 1.192,2.607 m 22.149,-49.095 c 0,0 0.129,1.067 0.323,2.665 0.05,0.4 0.101,0.833 0.158,1.291 0.048,0.451 0.14,0.972 0.214,1.485 0.16,1.041 0.328,2.15 0.497,3.259 0.411,2.175 0.764,4.362 1.155,5.977 0.36,1.622 0.598,2.703 0.598,2.703 l 8.444,-2.031 c 0,0 -0.231,-1.014 -0.575,-2.535 -0.368,-1.516 -0.75,-3.564 -1.167,-5.603 -0.173,-1.011 -0.344,-2.022 -0.505,-2.97 -0.078,-0.481 -0.168,-0.917 -0.225,-1.382 -0.064,-0.458 -0.124,-0.889 -0.181,-1.288 -0.22,-1.596 -0.368,-2.659 -0.368,-2.659 z m 15.213,-66.93 -6.477,-2.458 c 0,0 -0.396,0.998 -0.992,2.495 -0.299,0.739 -0.646,1.614 -0.99,2.631 -0.349,0.997 -0.721,2.061 -1.092,3.123 -0.327,1.059 -0.655,2.117 -0.962,3.111 -0.322,0.988 -0.554,1.929 -0.773,2.729 -0.429,1.606 -0.716,2.675 -0.716,2.675 l 7.28,1.69 c 0,0 0.239,-1.013 0.594,-2.532 0.181,-0.757 0.371,-1.651 0.644,-2.586 0.257,-0.939 0.532,-1.942 0.807,-2.945 0.306,-0.974 0.612,-1.948 0.9,-2.863 0.267,-0.902 0.584,-1.783 0.864,-2.545 l 0.913,-2.525 m -7.794,40.867 c 0.056,-1.035 0.114,-2.069 0.169,-3.037 0.03,-0.49 0.042,-0.942 0.086,-1.41 0.038,-0.459 0.075,-0.893 0.106,-1.296 0.132,-1.604 0.221,-2.674 0.221,-2.674 l -7.829,-0.708 c 0,0 -0.105,1.067 -0.265,2.67 -0.039,0.401 -0.082,0.836 -0.128,1.294 -0.049,0.451 -0.076,0.972 -0.118,1.486 -0.075,1.041 -0.157,2.148 -0.238,3.258 -0.097,2.197 -0.232,4.395 -0.241,6.047 -0.033,1.652 -0.055,2.753 -0.055,2.753 l 8.149,-0.012 c 0,0 0.004,-1.045 0.009,-2.615 -0.018,-1.57 0.077,-3.664 0.134,-5.756 M 159.59,410.304 c 0.643,0.837 1.328,1.731 2.014,2.625 1.401,1.725 2.779,3.47 3.881,4.721 1.087,1.264 1.812,2.107 1.812,2.107 l 3.812,-3.371 2.964,-2.62 c 0,0 -0.685,-0.797 -1.712,-1.991 -1.049,-1.177 -2.357,-2.82 -3.693,-4.443 -0.634,-0.818 -1.268,-1.636 -1.863,-2.404 -0.592,-0.747 -1.15,-1.511 -1.629,-2.172 -0.956,-1.309 -1.593,-2.182 -1.593,-2.182 l -7.257,5.271 c 0,0 0.633,0.876 1.582,2.19 0.053,0.074 0.118,0.162 0.174,0.238 0.432,0.604 0.923,1.279 1.508,2.031 m 28.71,-30.37 c 0,0 -0.48,-0.919 -1.199,-2.299 -0.747,-1.366 -1.612,-3.253 -2.519,-5.119 -0.413,-0.933 -0.825,-1.866 -1.21,-2.74 -0.193,-0.446 -0.386,-0.844 -0.556,-1.278 -0.171,-0.428 -0.335,-0.833 -0.485,-1.206 -0.601,-1.494 -1.003,-2.49 -1.003,-2.49 l -8.155,3.256 c 0,0 0.395,0.998 0.99,2.496 0.148,0.374 0.308,0.779 0.479,1.209 0.163,0.425 0.386,0.908 0.591,1.389 0.421,0.969 0.871,2.003 1.32,3.036 0.957,2.003 1.875,4.027 2.663,5.494 0.763,1.479 1.271,2.467 1.271,2.467 z m 31.273,-158.072 c 0.435,-0.223 0.823,-0.458 1.25,-0.646 0.419,-0.194 0.815,-0.377 1.18,-0.546 1.463,-0.678 2.438,-1.129 2.438,-1.129 l -1.61,-3.748 c 0,0 -0.998,0.395 -2.497,0.989 -0.374,0.151 -0.78,0.31 -1.209,0.481 -0.427,0.16 -0.893,0.397 -1.367,0.607 -0.952,0.441 -1.966,0.907 -2.982,1.377 -0.975,0.519 -1.95,1.037 -2.863,1.525 -0.453,0.25 -0.908,0.465 -1.309,0.719 -0.408,0.245 -0.792,0.477 -1.147,0.692 -1.422,0.857 -2.37,1.43 -2.37,1.43 l 2.752,4.097 c 0,0 0.868,-0.577 2.166,-1.441 0.327,-0.218 0.679,-0.453 1.053,-0.702 0.366,-0.256 0.785,-0.474 1.202,-0.73 0.843,-0.497 1.74,-1.029 2.638,-1.561 0.912,-0.481 1.821,-0.962 2.675,-1.414 m -0.88,61.125 -6.274,-3.215 c 0,0 -0.516,0.953 -1.288,2.383 -0.193,0.359 -0.402,0.745 -0.624,1.156 -0.213,0.445 -0.439,0.916 -0.672,1.4 -0.231,0.489 -0.472,0.997 -0.716,1.511 -0.235,0.513 -0.507,1.04 -0.72,1.558 -0.431,1.046 -0.861,2.09 -1.267,3.068 -0.426,0.972 -0.719,1.913 -1.004,2.709 l -0.925,2.661 7.405,2.276 c 0,0 0.315,-0.989 0.789,-2.475 0.247,-0.741 0.487,-1.623 0.836,-2.53 0.331,-0.913 0.684,-1.89 1.037,-2.866 0.174,-0.49 0.385,-0.936 0.573,-1.401 0.192,-0.46 0.382,-0.911 0.564,-1.35 0.185,-0.439 0.364,-0.864 0.534,-1.265 0.203,-0.419 0.394,-0.815 0.571,-1.181 0.709,-1.463 1.181,-2.439 1.181,-2.439 m -17.083,33.88 c -0.024,0.406 -0.05,0.846 -0.079,1.31 -0.011,0.49 -0.024,1.007 -0.037,1.542 -0.016,1.071 -0.054,2.226 -0.054,3.36 0.021,1.123 0.044,2.245 0.064,3.298 0.004,1.054 0.085,2.031 0.128,2.87 0.098,1.679 0.162,2.798 0.162,2.798 l 8.354,-0.711 c 0,0 -0.078,-1.042 -0.196,-2.607 -0.054,-0.782 -0.147,-1.695 -0.168,-2.674 -0.036,-0.978 -0.076,-2.021 -0.116,-3.065 -0.017,-1.031 -0.001,-2.043 -0.005,-3.003 10e-4,-0.481 0.002,-0.946 0.004,-1.386 0.02,-0.465 0.039,-0.906 0.055,-1.311 0.07,-1.624 0.115,-2.707 0.115,-2.707 l -8.063,-0.417 c 0,0 -0.065,1.081 -0.164,2.703 m 15.943,47.091 c 0,0 -0.342,-0.99 -0.856,-2.476 -0.256,-0.743 -0.568,-1.606 -0.846,-2.549 -0.291,-0.938 -0.601,-1.94 -0.913,-2.942 -0.274,-0.994 -0.55,-1.987 -0.807,-2.92 -0.266,-0.912 -0.486,-1.837 -0.675,-2.632 -0.382,-1.58 -0.636,-2.634 -0.636,-2.634 l -8.438,2.01 c 0,0 0.249,1.055 0.62,2.637 0.184,0.787 0.397,1.708 0.688,2.751 0.277,1.026 0.573,2.123 0.869,3.219 0.324,1.069 0.649,2.14 0.953,3.143 0.292,1.008 0.618,1.931 0.887,2.727 0.541,1.588 0.9,2.647 0.9,2.647 z m -26.044,37.468 c 0.475,0.645 1.029,1.399 1.703,2.236 0.655,0.827 1.354,1.711 2.055,2.594 1.432,1.691 2.834,3.412 3.968,4.627 1.117,1.231 1.861,2.052 1.861,2.052 l 6.616,-6.151 c 0,0 -0.693,-0.774 -1.734,-1.935 -1.063,-1.14 -2.389,-2.742 -3.741,-4.319 -0.639,-0.796 -1.277,-1.594 -1.875,-2.341 -0.595,-0.725 -1.161,-1.483 -1.644,-2.132 -0.966,-1.289 -1.609,-2.148 -1.609,-2.148 l -7.196,5.36 c 0,0 0.638,0.862 1.596,2.157 m 23.863,56.855 c 3.884,2.156 7.771,4.313 7.771,4.313 l 0.86,-1.612 3.231,-6.051 -7.33,-4.113 c -3.688,-2.253 -7.375,-4.507 -7.375,-4.507 l -4.564,7.497 c 0,0 0.056,0.033 0.146,0.088 0.707,0.426 3.98,2.405 7.261,4.385 m 211.888,18.426 -0.485,-3.301 c 0,0 -4.308,0.588 -8.617,1.175 -4.275,0.652 -8.551,1.304 -8.551,1.304 l 0.704,4.031 c 0,0 4.242,-0.839 8.484,-1.677 l 8.465,-1.532 M 255.879,252.582 c 0,0 1.013,-0.269 2.551,-0.616 0.771,-0.165 1.672,-0.363 2.647,-0.525 0.97,-0.19 2.017,-0.322 3.064,-0.478 1.049,-0.114 2.101,-0.25 3.093,-0.317 0.994,-0.092 1.909,-0.13 2.696,-0.17 0.782,-0.047 1.484,-0.043 1.949,-0.064 0.475,-0.014 0.746,-0.021 0.746,-0.021 l 0.051,-2.695 c 0,0 -0.27,-0.017 -0.743,-0.05 -0.48,-0.025 -1.134,-0.094 -1.977,-0.107 -0.838,-0.024 -1.82,-0.059 -2.854,-0.045 -1.04,-0.012 -2.147,0.042 -3.259,0.079 -1.109,0.075 -2.22,0.129 -3.259,0.247 -1.042,0.089 -2.008,0.224 -2.837,0.334 -1.66,0.239 -2.762,0.442 -2.762,0.442 z m 22.645,-39.052 c -2.076,-0.478 -4.15,-0.957 -4.15,-0.957 l -0.118,0.688 4.19,0.611 c 2.089,0.386 4.177,0.771 4.177,0.771 0,0 -2.051,-0.556 -4.099,-1.113 m 10.931,-41.601 c 4.034,1.111 8.069,2.222 8.069,2.222 l 1.264,-3.605 c 0,0 -4.022,-1.542 -8.044,-3.086 -4.036,-1.319 -8.072,-2.64 -8.072,-2.64 l -1.449,5.044 c 0,0 4.115,1.032 8.232,2.065 m -9.337,118.621 c 0,0 -0.296,0.598 -0.662,1.34 -0.117,0.234 -0.239,0.48 -0.362,0.728 -0.496,1.04 -0.994,2.082 -0.994,2.082 l 4.402,1.77 c 0,0 0.361,-1.097 0.723,-2.193 0.242,-0.766 0.482,-1.529 0.606,-1.923 0.052,-0.169 0.087,-0.279 0.087,-0.279 l -0.163,-0.066 -1.707,-0.686 z m -13.977,28.695 c 0,0 -0.234,-0.308 -0.55,-0.738 -0.105,-0.145 -0.216,-0.299 -0.336,-0.464 -0.133,-0.189 -0.275,-0.385 -0.415,-0.583 -0.295,-0.449 -0.58,-0.841 -0.821,-1.235 -0.242,-0.361 -0.402,-0.603 -0.402,-0.603 l -3.239,2.742 c 0,0 0.211,0.198 0.529,0.494 0.301,0.28 0.813,0.719 1.292,1.123 0.973,0.767 2.009,1.42 2.009,1.42 z m 2.68,4.255 c 0.589,0.153 1.165,0.259 1.165,0.26 l -1.568,-1.707 -0.701,1.092 c 0,0 0.543,0.191 1.104,0.355 m 11.674,-7.351 c 0.301,0.279 0.814,0.718 1.294,1.122 0.97,0.767 2.005,1.419 2.005,1.421 l 1.934,-2.156 c 0,0 -0.675,-0.891 -1.298,-1.786 -0.297,-0.448 -0.58,-0.841 -0.824,-1.234 -0.239,-0.361 -0.4,-0.603 -0.4,-0.603 l -3.241,2.741 c 0,0 0.212,0.198 0.53,0.495 m 5.089,-29.845 c 0.291,-1.125 0.582,-2.25 0.582,-2.25 l -2.03,-0.832 c 0,0 -0.582,1.007 -1.163,2.01 -0.574,1.009 -1.126,2.028 -1.127,2.028 l 3.119,1.278 c -10e-4,-0.001 0.322,-1.112 0.619,-2.234 m 1.832,-8.146 c 0,0 -0.341,0.465 -0.659,0.944 -0.327,0.469 -0.639,0.949 -0.639,0.949 l 0.875,0.362 c 0,0 0.119,-0.558 0.221,-1.122 0.113,-0.562 0.202,-1.133 0.202,-1.133 m -6.052,21.773 -4.797,-1.83 c 10e-4,-0.002 -0.457,1.056 -0.892,2.123 l -0.165,0.397 -0.039,0.097 -0.09,0.253 -0.067,0.193 c -0.046,0.127 -0.089,0.25 -0.131,0.366 -0.037,0.089 -0.071,0.205 -0.103,0.353 -0.004,0.02 -0.009,0.035 -0.015,0.056 -0.146,0.632 -0.221,1.058 -0.221,1.058 l 5.299,0.747 c 0,0 0.034,-0.14 0.055,-0.354 0.003,-0.031 0,-0.05 0.01,-0.091 l 0.048,-0.174 c 0.033,-0.12 0.067,-0.244 0.103,-0.376 l 0.006,0.072 0.099,0.245 0.134,0.025 0.071,-0.477 0.092,-0.107 h -0.456 v 0.147 l 0.203,-0.109 c 0.002,-0.009 0.19,-0.038 0.192,-0.038 h -0.131 l 0.07,-0.404 c 0.093,-0.258 0.184,-0.512 0.267,-0.758 0.264,-0.782 0.457,-1.414 0.458,-1.414 m -4.435,11.879 c 0.258,0.416 0.428,0.692 0.428,0.692 l 0.971,-0.567 3.282,-1.911 c 0,0 -0.105,-0.23 -0.26,-0.574 -0.177,-0.338 -0.32,-0.807 -0.514,-1.256 -0.067,-0.201 -0.134,-0.401 -0.197,-0.59 -0.03,-0.098 -0.062,-0.169 -0.092,-0.279 -0.029,-0.121 -0.058,-0.233 -0.084,-0.338 -0.109,-0.418 -0.182,-0.696 -0.182,-0.696 l -5.129,1.474 c 0,0 0.085,0.273 0.215,0.683 0.034,0.105 0.071,0.215 0.11,0.332 0.056,0.146 0.114,0.296 0.175,0.451 0.127,0.319 0.267,0.667 0.411,0.988 0.073,0.152 0.15,0.292 0.227,0.44 0.219,0.433 0.443,0.849 0.639,1.151 m -9.761,-30.182 c -0.328,0.471 -0.638,1.041 -0.639,1.041 l 0.874,0.408 c 0,0 0.119,-0.717 0.223,-1.281 0.112,-0.56 0.199,-1.289 0.201,-1.289 h -0.003 c -0.003,0 -0.34,0.647 -0.656,1.121 m -6.617,24.824 c 0,0 0.037,-0.139 0.056,-0.353 0.004,-0.031 0.002,-0.05 0.01,-0.092 l 0.05,-0.173 c 0.031,-0.12 0.066,-0.246 0.102,-0.375 l 0.054,-0.199 -0.054,-0.058 0.176,-0.398 c 0.392,-1.084 0.775,-2.173 0.775,-2.173 l -4.742,-1.822 c 0,0 -0.457,1.055 -0.892,2.123 l -0.164,0.397 -0.041,0.098 -0.089,0.253 -0.07,0.194 c -0.044,0.127 -0.089,0.25 -0.129,0.367 -0.042,0.103 -0.08,0.23 -0.117,0.408 -0.146,0.633 -0.222,1.058 -0.222,1.058 z m 1.209,5.707 c -0.175,-0.337 -0.319,-0.808 -0.513,-1.254 -0.068,-0.202 -0.134,-0.404 -0.196,-0.592 -0.031,-0.098 -0.063,-0.169 -0.092,-0.28 -0.032,-0.119 -0.059,-0.233 -0.084,-0.337 -0.111,-0.418 -0.184,-0.696 -0.184,-0.696 l -5.128,1.473 c 0,0 0.086,0.274 0.216,0.686 0.034,0.104 0.071,0.215 0.109,0.332 0.055,0.143 0.115,0.294 0.176,0.452 0.128,0.316 0.266,0.664 0.408,0.987 0.295,0.595 0.606,1.184 0.868,1.591 0.256,0.414 0.428,0.69 0.428,0.69 l 4.253,-2.478 c 0,0 -0.104,-0.229 -0.261,-0.574 m -1.231,-18.901 -1.024,2.07 c -0.497,1.042 -0.995,2.081 -0.995,2.081 l 4.402,1.77 c 0,0 0.361,-1.097 0.723,-2.192 0.346,-1.102 0.695,-2.203 0.695,-2.203 z m 4.846,-2.011 c 0,0 0.322,-1.113 0.62,-2.234 0.291,-1.126 0.581,-2.25 0.581,-2.25 l -2.028,-0.832 c 0,0 -0.583,1.006 -1.165,2.01 -0.574,1.009 -1.126,2.027 -1.126,2.027 z m 28.556,-38.766 c -2.02,-0.699 -4.038,-1.397 -4.038,-1.397 l -0.248,0.954 c 0,0 2.059,0.466 4.12,0.932 2.049,0.559 4.1,1.121 4.1,1.121 0,0 -1.967,-0.805 -3.934,-1.61 m 1.205,152.234 c 0.707,0.152 1.414,0.232 1.414,0.232 l 0.003,-1.218 c 0,0 -0.707,0.223 -1.416,0.375 -0.707,0.141 -1.413,0.403 -1.414,0.403 h 0.002 c 0.004,0 0.708,0.068 1.411,0.208 m 22.334,2.456 -0.063,-5.978 c 0,0 -1.45,0.087 -2.899,0.215 -1.448,0.127 -2.9,0.254 -2.9,0.254 l 0.055,5.16 c 0,0 1.451,0.096 2.903,0.194 1.453,0.097 2.904,0.155 2.904,0.155 m 4.693,-0.267 c 0,0 1.452,-0.397 2.903,-0.397 h 0.541 c 0.218,0 0.43,0.402 0.638,0.398 0.135,0.002 0.416,0.184 0.647,0.165 0.238,-0.019 0.453,0.055 0.623,0.024 0.717,-0.108 1.18,-0.184 1.18,-0.185 l -1.684,-6.499 c 0,0 -0.236,0.085 -0.592,0.146 -0.075,0.015 -0.158,0.035 -0.246,0.052 -0.08,0.014 -0.125,0.04 -0.329,0.055 l -0.257,0.026 -0.066,0.007 -0.035,0.018 -0.022,0.014 0.095,0.017 -0.129,-0.017 -0.539,0.016 c -1.448,0.067 -2.898,-0.048 -2.898,-0.048 z m 12.628,-3.181 c 0.104,-0.088 0.215,-0.184 0.334,-0.286 0.139,-0.133 0.287,-0.275 0.439,-0.421 0.309,-0.302 0.647,-0.631 0.956,-0.954 0.548,-0.627 1.085,-1.273 1.431,-1.776 0.36,-0.498 0.6,-0.829 0.6,-0.829 l -4.938,-3.759 c 0,0 -0.217,0.232 -0.541,0.579 -0.308,0.369 -0.787,0.763 -1.215,1.206 -0.199,0.174 -0.402,0.348 -0.593,0.511 -0.098,0.084 -0.166,0.155 -0.278,0.243 -0.127,0.092 -0.244,0.18 -0.353,0.261 -0.442,0.32 -0.725,0.548 -0.725,0.548 l 4.188,5.26 c 0,0 0.283,-0.224 0.695,-0.583 m 6.49,-9.679 c 0.094,-0.258 0.201,-0.548 0.321,-0.922 0.117,-0.358 0.24,-0.739 0.363,-1.122 0.191,-0.759 0.402,-1.498 0.506,-2.072 0.107,-0.568 0.181,-0.949 0.181,-0.949 l -3.441,-1.213 c 0,0 -0.182,0.3 -0.453,0.75 -0.041,0.072 -0.1,0.162 -0.145,0.239 -0.115,0.196 -0.234,0.396 -0.375,0.619 -0.154,0.249 -0.318,0.506 -0.48,0.765 -0.182,0.276 -0.365,0.552 -0.535,0.81 -0.157,0.248 -0.348,0.518 -0.504,0.743 -0.305,0.454 -0.51,0.757 -0.51,0.757 l 4.752,2.45 c 0,0 0.129,-0.342 0.32,-0.855 m 1.592,-11.451 c -0.105,-0.757 -0.258,-1.481 -0.258,-1.481 l -1.232,2.65 1.609,0.289 c 0.002,0 -0.041,-0.725 -0.119,-1.458 M 326.74,366.06 c 0,0 -0.712,1.114 -1.344,2.216 -0.783,1.152 -1.506,2.333 -1.506,2.333 l 4.567,2.149 c 0,0 0.447,-1.311 0.836,-2.648 0.189,-0.722 0.355,-1.457 0.475,-2.002 0.117,-0.541 0.195,-0.903 0.195,-0.903 z m 3.51,-4.967 c -0.09,-0.758 -0.229,-1.48 -0.229,-1.48 0,0 -0.312,0.68 -0.593,1.324 -0.332,0.656 -0.617,1.322 -0.617,1.322 l 1.527,0.289 c 0,0 -0.02,-0.724 -0.088,-1.455 m -8.763,12.746 c 0,0 -0.805,0.975 -1.617,1.893 -0.197,0.203 -0.393,0.405 -0.578,0.595 -0.162,0.179 -0.381,0.383 -0.57,0.571 -0.367,0.364 -0.61,0.606 -0.61,0.606 l 4.783,4.51 c 0,0 0.226,-0.258 0.569,-0.646 0.166,-0.185 0.36,-0.419 0.605,-0.741 0.106,-0.138 0.22,-0.288 0.33,-0.433 0.132,-0.172 0.261,-0.341 0.395,-0.517 0.429,-0.628 0.875,-1.246 1.146,-1.742 0.287,-0.485 0.48,-0.807 0.48,-0.807 l -0.833,-0.557 z m -13.751,6.846 c 0,0 -0.882,-0.059 -1.918,-0.128 -0.227,-0.017 -0.46,-0.031 -0.693,-0.047 -1.373,-0.114 -2.746,-0.228 -2.746,-0.228 l -0.773,5.872 c 0,0 1.356,0.247 2.71,0.494 1.431,0.202 2.861,0.404 2.861,0.404 l 0.353,-4.029 z m -0.749,21.464 c 0,0 -1.45,0.161 -2.9,0.355 -1.45,0.204 -2.899,0.407 -2.899,0.407 l 0.009,2.763 c 0,0 1.452,0.193 2.903,0.386 1.451,0.184 2.902,0.334 2.902,0.334 z m 18.279,-1.493 -0.006,0.036 0.204,0.036 c -0.026,-0.005 -0.194,-0.094 -0.198,-0.072 m -9.701,-13.818 c 0.869,-0.269 1.696,-0.614 2.278,-0.91 0.581,-0.304 0.945,-0.527 0.945,-0.527 l -3.449,-5.824 c 0,0 -0.226,0.129 -0.565,0.295 -0.333,0.182 -0.776,0.373 -1.215,0.525 -0.22,0.067 -0.44,0.135 -0.642,0.175 -0.233,0.059 -0.302,0.052 -0.436,0.101 -0.254,0.025 -0.467,0.047 -0.616,0.063 l -0.151,-0.019 -0.129,-0.021 -0.03,0.17 c -0.003,0.015 0.111,0.077 0.213,0.131 l 0.014,0.609 0.163,5.901 h 0.063 c 0.07,0 0.176,-0.075 0.308,-0.078 0.154,-0.005 0.368,-0.047 0.628,-0.056 0.375,-0.039 0.91,-0.101 1.304,-0.196 0.404,-0.073 0.82,-0.193 1.232,-0.31 0.029,-0.009 0.055,-0.021 0.085,-0.029 m -20.186,-7.258 c -1.372,-0.134 -2.749,-0.269 -2.749,-0.269 l -0.807,4.49 c 0,0 1.334,0.355 2.669,0.709 1.332,0.36 2.673,0.684 2.673,0.684 l 0.957,-5.319 c 0,0 -1.368,-0.166 -2.743,-0.295 m -9.843,-0.955 c -1.379,-0.131 -2.765,-0.227 -2.765,-0.227 l -0.493,2.321 c 0,0 1.307,0.474 2.62,0.914 1.31,0.456 2.627,0.876 2.627,0.876 l 0.767,-3.619 c 0,0 -1.375,-0.15 -2.756,-0.265 m -8.62,-0.617 c -0.717,-0.045 -1.439,-0.06 -1.439,-0.06 0,0 0.653,0.308 1.314,0.586 0.659,0.286 1.317,0.57 1.317,0.57 l 0.243,-1.02 c 0,0 -0.718,-0.038 -1.435,-0.076 m 11.493,-57.216 c 0.588,0.151 1.165,0.259 1.165,0.259 l -1.569,-1.707 -0.702,1.092 c 0,0 0.545,0.191 1.106,0.356 m 25.93,-71.288 c 0.682,0.224 1.371,0.41 1.371,0.41 l 0.127,-0.974 c 0,0 -0.714,0.003 -1.431,0.043 -0.717,0.029 -1.436,0.077 -1.436,0.077 0,0 0.682,0.232 1.369,0.444 m 5.898,1.683 2.848,0.736 c 1.42,0.38 2.852,0.704 2.852,0.704 l 0.512,-3.294 c 0,0 -1.462,-0.125 -2.93,-0.193 -1.469,-0.081 -2.938,-0.161 -2.938,-0.161 z m 22.339,13.299 c 2.319,-0.704 7.565,-3.178 7.695,-5.009 0.35,0.134 1.479,0.57 2.633,0.98 0.688,0.254 1.385,0.489 1.912,0.66 0.524,0.174 0.875,0.29 0.875,0.29 l 1.118,-2.372 c 0,0 -0.313,-0.198 -0.78,-0.495 -0.465,-0.302 -1.09,-0.69 -1.722,-1.064 -1.26,-0.765 -2.537,-1.485 -2.537,-1.485 l -1.52,3.231 c -0.045,-0.203 -0.141,-0.402 -0.344,-0.582 -0.945,-0.838 -2.138,-1.556 -3.478,-2.175 l 0.978,-2.566 c 0,-0.001 -1.427,-0.563 -2.857,-1.109 -1.393,-0.447 -2.787,-0.894 -2.787,-0.894 l -0.844,2.7 c -1.512,-0.379 -3.049,-0.68 -4.523,-0.922 l 0.582,-2.903 c 0,0 -1.442,-0.254 -2.889,-0.48 -1.443,-0.243 -2.895,-0.442 -2.895,-0.442 l -0.623,3.108 c -2.162,-0.186 -3.582,-0.222 -3.582,-0.222 5.828,5.454 12.897,12.572 15.588,11.751 m 19.029,-1.315 c 0.706,0.153 1.42,0.287 1.42,0.287 0,0 -0.572,-0.451 -1.152,-0.883 -0.588,-0.418 -1.176,-0.837 -1.176,-0.837 l -0.494,1.097 1.402,0.336 m 74.545,39.402 c 0,0 0.045,-0.007 0.127,-0.019 0.073,-0.012 0.215,0.226 0.411,0.235 0.15,-0.032 0.441,0.144 0.707,0.157 0.298,0.063 0.63,0.183 1.005,0.29 0.356,0.091 0.801,0.267 1.176,0.409 0.207,0.085 0.362,0.137 0.643,0.263 0.23,0.098 0.469,0.205 0.709,0.308 0.902,0.418 1.851,0.916 2.66,1.507 0.414,0.284 0.748,0.627 0.973,0.929 0.107,0.121 0.171,0.356 0.232,0.343 0.035,-0.003 -0.008,0.129 -0.008,0.186 l 0.268,0.106 0.068,0.019 c -0.689,-0.02 0.098,0.041 0.184,0.074 -0.059,0.053 -0.28,0.082 -0.305,0.155 -0.164,0.313 -0.752,0.569 -1.217,0.701 -0.47,0.147 -1.033,0.194 -1.484,0.192 -0.914,-0.005 -1.707,-0.206 -2.217,-0.374 -0.51,-0.176 -0.824,-0.307 -0.824,-0.307 0,0 0.275,0.136 0.781,0.33 0.502,0.202 1.225,0.476 2.149,0.7 0.464,0.101 0.98,0.214 1.562,0.231 0.574,-0.006 1.254,-0.039 1.953,-0.514 0.166,-0.134 0.334,-0.278 0.465,-0.474 l 0.102,-0.142 0.033,-0.084 0.004,-0.005 0.006,-0.013 0.015,-0.024 0.026,-0.051 c 0.039,-0.085 0.07,-0.088 0.115,-0.24 0.185,-0.602 0.138,-0.98 0.08,-1.439 -0.162,-0.851 -0.567,-1.536 -0.994,-2.148 -0.901,-1.199 -2.086,-2.03 -3.276,-2.586 -0.064,-0.03 -0.011,-0.012 -0.172,-0.081 l -0.101,-0.039 -0.199,-0.076 -0.395,-0.149 c -0.226,-0.104 -0.615,-0.184 -0.91,-0.265 -0.316,-0.093 -0.615,-0.138 -0.904,-0.168 -0.287,-0.035 -0.563,-0.078 -0.844,-0.068 -0.545,-0.026 -1.072,0.047 -1.525,0.128 -0.477,0.126 -0.87,0.216 -1.217,0.409 -0.332,0.146 -0.586,0.351 -0.754,0.502 -0.16,0.141 -0.289,-0.055 -0.289,-0.055 z M 318.521,181.066 c 1.232,0.429 2.464,0.857 3.388,1.179 0.93,0.312 1.549,0.519 1.549,0.519 0,0 -0.568,-0.324 -1.417,-0.811 -0.854,-0.477 -1.992,-1.116 -3.132,-1.753 -2.291,-1.247 -4.579,-2.493 -4.579,-2.493 l -0.717,1.596 c 0,0 2.452,0.881 4.908,1.763 M 62.997,337.877 c 0,0 0.046,0.14 0.112,0.336 0.089,0.262 0.219,0.636 0.363,1.022 0.245,0.675 0.491,1.35 0.491,1.35 l 0.919,-0.533 c 0,0 -0.467,-0.545 -0.936,-1.091 -0.277,-0.331 -0.55,-0.64 -0.737,-0.848 -0.122,-0.136 -0.212,-0.236 -0.212,-0.236 m 498.595,224.46 -6.975,-4.348 c -0.646,-1.775 1.426,-9.73 2.414,-15.209 -1.373,-3.285 -3.121,-6.52 -5.195,-9.676 l -12.246,4.27 c -2.305,-4.132 -2.762,-16.933 -4.799,-22.883 -2.775,-2.296 -5.717,-4.489 -8.797,-6.555 l -10.822,12.585 c -3.086,-2.653 -7.18,-17.428 -10.951,-24.115 -3.688,-1.493 -7.451,-2.807 -11.262,-3.917 l -4.082,13.962 c -4.75,-1.387 -16.772,-17.448 -22.314,-18.147 -3.02,-0.058 -5.983,-0.046 -8.917,-0.003 l -0.218,13.978 c -4.071,-0.063 -13.184,-9.359 -19.803,-12.974 -5.094,0.43 -10.088,0.974 -15.018,1.589 l 1.211,13.035 c -5.939,0.552 -17.341,-10.536 -22.507,-9.993 -4.438,0.691 -8.858,1.394 -13.278,2.082 l 1.225,11.561 c -5.166,0.547 -13.047,-6.06 -18.815,-8.999 -5.621,0.742 -11.3,1.386 -17.078,1.884 l 0.553,10.114 c -4.445,0.243 -12.875,-5.652 -19.488,-9.122 -5.235,0.087 -10.586,0.005 -16.075,-0.277 l -0.456,9.674 c -6.171,-0.29 -13.742,-10.892 -19.606,-11.565 l 0.006,-0.02 c -4.782,-0.664 -9.681,-1.491 -14.717,-2.511 l -1.906,9.881 c -6.044,-1.165 -14.092,-13.705 -19.908,-15.333 l 0.005,-0.007 c -4.061,-1.223 -8.05,-2.534 -11.949,-3.942 l -3.512,9.353 C 240.597,494.562 232.71,480.415 227.18,477.77 l 0.008,-0.006 c -3.193,-1.562 -6.329,-3.181 -9.395,-4.865 l -4.667,7.946 c -4.203,-2.467 -8.037,-12.481 -12.016,-18.09 -2.869,-1.921 -5.682,-3.89 -8.424,-5.915 l 4.767,-14.48 c -0.621,-0.509 -1.245,-1.035 -1.868,-1.555 l 3.149,-4.139 c 0,0 -0.83,-0.652 -2.077,-1.629 -1.259,-0.96 -2.875,-2.318 -4.508,-3.654 -0.79,-0.679 -1.58,-1.358 -2.319,-1.995 -0.737,-0.622 -1.437,-1.255 -2.039,-1.804 -1.204,-1.087 -2.006,-1.812 -2.006,-1.812 l -5.989,6.658 c 0,0 0.404,0.361 1.06,0.948 0.277,0.248 0.595,0.532 0.955,0.854 0.597,0.539 1.303,1.171 2.118,1.855 0.8,0.681 1.653,1.407 2.506,2.133 1.718,1.394 3.422,2.808 4.746,3.808 1.311,1.016 2.185,1.693 2.185,1.693 l 2.219,-2.916 c 0.623,0.52 1.049,1.011 1.673,1.52 l -4.94,14.379 c -0.001,-0.01 0.006,-0.019 -0.012,-0.032 -0.083,-0.063 -0.07,-0.112 -0.153,-0.167 -4.326,-2.898 -7.126,4.789 -11.442,0.748 l -6.228,-15.347 -0.013,-0.03 c -4.333,-3.949 -8.484,-8.022 -12.443,-12.206 l -5.36,4.646 c -2.837,-3.274 -3.964,-11.493 -5.938,-17.48 -3.277,-3.994 -6.403,-8.061 -9.377,-12.184 l -6.416,6.452 c -2.943,-4.21 -3.318,-13.784 -5.141,-19.738 -47.087,15.625 -54.994,17.398 -64.159,-11.963 -6.29,-20.143 -6.613,-28.641 -9.659,-34.667 -6.137,4.818 -21.48,16.71 -21.972,15.458 -0.614,-1.567 11.926,-16.426 10.641,-18.933 -1.286,-2.508 -34.345,5.346 -33.746,1.497 0.6,-3.849 28.436,-9.654 27.673,-12.366 -0.761,-2.711 -32.694,-15.778 -31.277,-17.54 1.417,-1.761 28.976,6.098 30.284,3.175 1.308,-2.923 -4.837,-23.398 -3.755,-23.826 1.084,-0.424 13.609,20.863 15.278,20.509 1.667,-0.353 7.77,-19.417 9.491,-18.783 2.233,0.82 5.512,34.77 8.149,40.717 l -0.007,0.007 c 5.856,7.501 17.526,21.74 41.72,8.326 -0.624,-1.674 -1.226,-3.346 -1.808,-5.013 l -7.101,1.502 c -0.795,-3.034 1.972,-16.101 1.649,-19.522 -0.65,-2.718 -1.229,-5.49 -1.73,-8.314 l -7.021,1.306 c -0.694,-2.653 3.865,-13.021 4.993,-17.876 -0.244,-3.437 -0.379,-6.918 -0.417,-10.435 l -4.1,0.764 c -0.635,-2.42 3.102,-11.26 4.621,-16.481 0.319,-4.18 0.788,-8.384 1.398,-12.589 l -4.68,1.336 c -0.646,-2.463 5.826,-13.978 8.436,-20.217 0.807,-3.171 1.699,-6.325 2.681,-9.456 l -5.519,1.598 c -0.7,-2.669 10.738,-17.145 13.975,-23.216 0.19,-0.4 0.382,-0.804 0.576,-1.205 0.215,-0.527 0.305,-0.93 0.245,-1.181 l 0.291,0.107 c 2.677,-5.405 5.66,-10.65 8.963,-15.682 -29.045,-14.256 -31.146,-22.897 -20.312,-46.943 8.744,-19.409 14.193,-26.038 15.93,-32.626 -7.858,-0.472 -27.4,-1.778 -26.932,-3.054 0.585,-1.592 19.999,-4.405 20.709,-7.158 0.71,-2.753 -29.493,-18.968 -26.465,-21.472 3.028,-2.503 27.922,11.762 29.162,9.204 1.241,-2.556 -14.101,-33.803 -11.852,-34.183 2.249,-0.38 17.78,24.008 20.726,22.679 2.942,-1.329 12.022,-20.898 13.124,-20.492 1.1,0.405 -1.411,29.001 0.085,29.852 1.494,0.851 16.453,-14.065 17.462,-11.889 1.007,2.18 -19.085,30.209 -21.112,36.257 l -0.011,0.002 c -0.761,10.429 -1.543,33.332 38.774,35.891 25.725,-12.422 58.38,-16.64 98.663,-7.669 24.406,5.433 43.547,13.765 71.952,33.238 28.402,19.473 111.835,30.219 121.74,36.065 14.689,-0.091 34.215,16.504 33.845,26.378 -5.322,-3.231 -11.808,-6.747 -19.328,-10.127 -5.945,-2.686 -12.504,-5.357 -19.578,-7.781 -7.062,-2.458 -14.613,-4.76 -22.523,-6.762 -7.906,-1.998 -16.137,-3.855 -24.584,-5.279 -8.442,-1.456 -17.069,-2.642 -25.738,-3.468 -8.674,-0.78 -17.381,-1.231 -25.987,-1.192 -4.301,0.025 -8.578,0.201 -12.81,0.603 -4.239,0.45 -8.414,0.945 -12.602,2.378 -1.047,0.363 -2.111,0.836 -3.185,1.556 -0.276,0.213 -0.541,0.388 -0.809,0.647 -0.27,0.299 -0.539,0.523 -0.775,0.912 -0.229,0.416 -0.465,0.7 -0.594,1.411 -0.061,0.286 -0.102,0.693 -0.094,0.874 l 0.037,0.372 0.008,0.092 c 0.025,0.162 -0.041,-0.231 0.059,0.386 l 0.078,0.227 0.158,0.45 0.336,0.893 c 0.269,0.517 0.556,1.009 0.842,1.505 0.621,0.899 1.244,1.785 1.933,2.543 0.739,0.853 1.498,1.655 2.266,2.429 -0.211,-0.057 -0.404,-0.127 -0.627,-0.179 -1.328,-0.41 -2.74,-0.559 -4.141,-0.829 -1.396,-0.3 -2.843,-0.358 -4.288,-0.484 -0.724,-0.049 -1.448,-0.142 -2.178,-0.151 l -2.195,0.026 -2.198,0.029 c -0.735,0.014 -1.461,0.141 -2.191,0.207 -1.433,0.157 -2.867,0.315 -4.294,0.471 -0.369,0.054 -0.696,0.064 -1.002,0.056 -0.316,-0.004 -0.627,0.03 -0.955,-0.019 -0.326,-0.036 -0.655,-0.047 -0.975,-0.102 l -0.957,-0.194 c -2.529,-0.657 -4.729,-2.278 -6.561,-4.142 -1.839,-1.875 -3.4,-3.949 -4.877,-5.918 -1.474,-1.977 -2.877,-3.861 -4.277,-5.519 -1.397,-1.657 -2.795,-3.089 -4.158,-4.213 -1.361,-1.129 -2.679,-1.938 -3.8,-2.512 -1.134,-0.561 -2.073,-0.896 -2.719,-1.08 -0.649,-0.184 -0.994,-0.281 -0.994,-0.281 0,0 0.341,0.114 0.979,0.328 0.633,0.216 1.55,0.593 2.639,1.205 1.083,0.623 2.34,1.482 3.62,2.656 1.285,1.169 2.585,2.64 3.882,4.342 1.299,1.701 2.593,3.629 3.972,5.68 1.386,2.047 2.856,4.226 4.691,6.292 1.825,2.045 4.153,4.005 7.099,4.933 l 1.112,0.282 c 0.375,0.085 0.757,0.118 1.138,0.181 0.376,0.07 0.783,0.059 1.178,0.08 0.408,0.022 0.795,0.022 1.136,-0.011 1.423,-0.085 2.852,-0.173 4.28,-0.259 0.703,-0.027 1.403,-0.119 2.103,-0.093 l 2.1,0.076 2.086,0.074 c 0.69,0.042 1.375,0.169 2.057,0.247 1.362,0.19 2.723,0.307 4.026,0.656 1.304,0.324 2.623,0.519 3.853,0.972 3.135,0.926 6.018,2.145 8.588,3.487 5.551,4.448 11.069,8.24 16.221,11.673 10.855,7.189 20.215,12.636 26.789,16.4 1.381,0.794 2.635,1.5 3.768,2.127 l 0.722,-0.242 6.586,-2.212 -0.207,6.399 c 1.109,0.762 2.217,1.545 3.326,2.347 l 6.819,-2.369 -0.682,6.93 c 0.961,0.728 1.934,1.463 2.918,2.205 l 7.697,-2.758 -1.205,7.566 c 0.883,0.638 1.783,1.277 2.695,1.917 l 8.448,-3.103 -1.655,7.627 c 1,0.63 2.018,1.257 3.061,1.877 0.025,0.017 0.053,0.032 0.08,0.049 l 8.451,-3.176 -1.922,7.107 c 1.293,0.792 2.559,1.579 3.793,2.363 l 8.065,-3.09 -2.235,6.975 c 1.297,0.913 2.524,1.822 3.661,2.722 l 8.511,-3.321 -3.086,8.4 c 2.514,2.954 3.684,5.826 2.869,8.596 -0.248,2.318 -13.232,15.382 -20.646,6.031 -7.412,-9.35 -8.029,-5.549 -40.596,-18.679 -33.595,-13.545 -49.738,1.419 -49.738,1.419 -15.172,-6.819 -29.02,-13.865 -41.64,-18.379 -23.992,31.915 -13.148,41.664 -7.972,45.991 l 0.004,-0.006 c 3.467,1.285 24.098,-0.147 24.445,1.423 0.061,0.276 -0.527,0.84 -1.466,1.558 4.524,2.77 12.156,8.558 13.365,8.39 1.659,-0.228 3.815,-17.75 4.977,-17.77 1.16,-0.02 4.404,15.21 6.838,16.777 2.433,1.567 23.918,-11.261 25.953,-10.491 2.033,0.77 -21.16,18.251 -20.686,20.253 0.477,2.004 28.077,-1.881 30.268,0.496 2.191,2.375 -30.998,6.354 -31.082,8.365 -0.08,2.012 17.605,8.347 17.725,9.552 0.093,0.963 -18.848,-2.634 -26.452,-4.115 -1.906,-0.372 -3.099,-0.667 -3.099,-0.667 l -10.914,-3.119 -0.01,-0.002 c -0.173,-3.473 -7.379,-18.868 -9.631,-25.742 -0.006,0.005 -0.015,0.01 -0.021,0.016 -3.451,2.3 -7.78,4.963 -7.978,5.723 -0.336,1.283 11.864,8.19 11.526,9.047 -0.337,0.857 -12.491,-1.387 -14.378,-0.076 -1.885,1.309 1,20.958 -0.183,22.216 -1.184,1.258 -6.957,-21.058 -8.571,-21.317 -1.614,-0.259 -7.144,21.161 -9.551,22.045 -2.407,0.886 4.751,-24.659 3.302,-25.33 -1.453,-0.671 -11.468,10.376 -12.388,10.097 -0.693,-0.211 6.771,-11.67 10.456,-17.25 -2.939,0.094 -7.545,1.739 -18.082,-0.37 -2.77,-0.554 -5.439,-0.893 -7.92,-1.219 0.06,0.475 0.103,0.945 0.171,1.421 0.683,5.012 1.849,10.116 3.328,15.172 1.498,5.055 3.308,10.071 5.389,14.918 0.702,1.643 1.434,3.265 2.18,4.873 44.108,10.101 49.888,-6.292 52.342,-14.113 l 10.923,3.064 c 0,0 1.203,0.241 3.109,0.613 -0.162,4.824 3.192,10.524 6.162,25.569 4.436,22.441 20.668,31.674 -31.653,34.57 0,0 -0.179,-0.087 -0.494,-0.239 -0.029,0.003 -0.054,0.006 -0.084,0.009 -1.424,0.082 -3.603,0.152 -6.296,-0.224 -2.713,-0.338 -5.998,-1.087 -9.612,-2.424 -3.612,-1.333 -7.536,-3.261 -11.546,-5.79 -4.011,-2.531 -8.055,-5.697 -12.01,-9.389 -3.948,-3.698 -7.751,-7.958 -11.292,-12.671 -1.768,-2.355 -3.473,-4.825 -5.059,-7.415 -0.824,-1.277 -1.575,-2.608 -2.367,-3.928 -0.737,-1.348 -1.496,-2.697 -2.187,-4.09 -2.827,-5.538 -5.208,-11.445 -7.037,-17.574 -1.789,-6.142 -3.041,-12.503 -3.495,-18.925 -0.138,-1.596 -0.159,-3.214 -0.214,-4.81 0.023,-1.61 0.025,-3.203 0.137,-4.801 0.163,-3.183 0.508,-6.349 1.156,-9.425 1.167,-6.167 3.366,-11.996 6.183,-17.071 0.776,-1.24 1.455,-2.491 2.288,-3.634 0.401,-0.577 0.799,-1.151 1.194,-1.717 0.414,-0.553 0.852,-1.085 1.282,-1.611 1.711,-2.107 3.543,-3.967 5.373,-5.63 3.731,-3.274 7.539,-5.63 11.024,-7.297 1.375,-0.64 2.672,-1.166 3.924,-1.639 3.146,-2.016 5.76,-3.273 7.08,-3.001 0.543,-0.772 1.016,-1.44 1.399,-1.981 -9.624,-0.651 -18.385,1.687 -26.332,8.78 -37.936,33.861 -25.069,126.55 54.926,142.106 46.496,9.043 97.863,4.877 163.933,31.683 88.813,36.034 87.897,86.822 89.783,101.376 2.705,20.866 -2.576,15.685 -5.017,8.26"
           style="fill:#000000;fill-opacity:1;fill-rule:nonzero;stroke:none"
           id="path5597"
           inkscape:connector-curvature="0" /></g></g></g></svg>